<svg width="32" height="33" viewBox="0 0 32 33" fill="none" xmlns="http://www.w3.org/2000/svg">
<path fill-rule="evenodd" clip-rule="evenodd" d="M16 30.8882C23.732 30.8882 30 24.6202 30 16.8882C30 9.1562 23.732 2.88818 16 2.88818C8.26801 2.88818 2 9.1562 2 16.8882C2 23.7885 6.99207 29.5228 13.5617 30.6766V21.1697H10V17.2183H13.5617V14.2066C13.5617 10.7811 15.6548 8.88818 18.8603 8.88818C20.3945 8.88818 22 9.15517 22 9.15517V12.5193H20.2302C18.4877 12.5193 17.9452 13.5739 17.9452 14.6552V17.2183H21.8356L21.2137 21.1697H17.9452V30.7227C17.27 30.826 16.5801 30.8818 15.8779 30.8877C15.9185 30.888 15.9593 30.8882 16 30.8882Z" fill="#1F1F1E"/>
</svg>
