<svg width="32" height="33" viewBox="0 0 32 33" fill="none" xmlns="http://www.w3.org/2000/svg">
<path d="M11.7887 28.8882C8.55374 28.8882 5.53817 27.9473 3 26.3238C5.15499 26.4632 8.95807 26.1293 11.3236 23.873C7.76508 23.7097 6.16026 20.9805 5.95094 19.8141C6.25329 19.9308 7.6953 20.0707 8.50934 19.7442C4.4159 18.7178 3.78793 15.1255 3.92748 14.0292C4.695 14.5657 5.99745 14.7523 6.50913 14.7056C2.69479 11.9764 4.06703 7.87094 4.74151 6.98453C7.47882 10.7768 11.5812 12.9068 16.6564 13.0252C16.5607 12.6055 16.5102 12.1686 16.5102 11.7198C16.5102 8.4991 19.1134 5.88818 22.3247 5.88818C24.0025 5.88818 25.5144 6.60094 26.5757 7.74102C27.6969 7.47829 29.3843 6.86325 30.2092 6.33139C29.7934 7.82429 28.4989 9.06967 27.7159 9.53126C27.7095 9.51549 27.7224 9.54696 27.7159 9.53126C28.4037 9.42722 30.2648 9.06955 31 8.57074C30.6364 9.40943 29.264 10.8039 28.1377 11.5846C28.3473 20.8262 21.2765 28.8882 11.7887 28.8882Z" fill="#1F1F1E"/>
</svg>
