<svg width="32" height="33" viewBox="0 0 32 33" fill="none" xmlns="http://www.w3.org/2000/svg">
<path d="M25.625 9.32568C25.625 10.4648 24.7016 11.3882 23.5625 11.3882C22.4234 11.3882 21.5 10.4648 21.5 9.32568C21.5 8.1866 22.4234 7.26318 23.5625 7.26318C24.7016 7.26318 25.625 8.1866 25.625 9.32568Z" fill="#1F1F1E"/>
<path fill-rule="evenodd" clip-rule="evenodd" d="M16 23.7632C19.797 23.7632 22.875 20.6851 22.875 16.8882C22.875 13.0912 19.797 10.0132 16 10.0132C12.203 10.0132 9.125 13.0912 9.125 16.8882C9.125 20.6851 12.203 23.7632 16 23.7632ZM16 21.0132C18.2782 21.0132 20.125 19.1664 20.125 16.8882C20.125 14.61 18.2782 12.7632 16 12.7632C13.7218 12.7632 11.875 14.61 11.875 16.8882C11.875 19.1664 13.7218 21.0132 16 21.0132Z" fill="#1F1F1E"/>
<path fill-rule="evenodd" clip-rule="evenodd" d="M2.25 16.3382C2.25 11.7178 2.25 9.40753 3.1492 7.64276C3.94015 6.09042 5.20224 4.82834 6.75458 4.03738C8.51935 3.13818 10.8296 3.13818 15.45 3.13818H16.55C21.1704 3.13818 23.4806 3.13818 25.2454 4.03738C26.7978 4.82834 28.0598 6.09042 28.8508 7.64276C29.75 9.40753 29.75 11.7178 29.75 16.3382V17.4382C29.75 22.0586 29.75 24.3688 28.8508 26.1336C28.0598 27.6859 26.7978 28.948 25.2454 29.739C23.4806 30.6382 21.1704 30.6382 16.55 30.6382H15.45C10.8296 30.6382 8.51935 30.6382 6.75458 29.739C5.20224 28.948 3.94015 27.6859 3.1492 26.1336C2.25 24.3688 2.25 22.0586 2.25 17.4382V16.3382ZM15.45 5.88818H16.55C18.9056 5.88818 20.5069 5.89032 21.7446 5.99145C22.9503 6.08995 23.5668 6.2685 23.9969 6.48765C25.0318 7.01495 25.8732 7.85634 26.4005 8.89124C26.6197 9.32133 26.7982 9.9379 26.8967 11.1435C26.9979 12.3813 27 13.9826 27 16.3382V17.4382C27 19.7938 26.9979 21.3951 26.8967 22.6328C26.7982 23.8385 26.6197 24.455 26.4005 24.8851C25.8732 25.92 25.0318 26.7614 23.9969 27.2887C23.5668 27.5079 22.9503 27.6864 21.7446 27.7849C20.5069 27.886 18.9056 27.8882 16.55 27.8882H15.45C13.0944 27.8882 11.4931 27.886 10.2554 27.7849C9.04971 27.6864 8.43315 27.5079 8.00305 27.2887C6.96816 26.7614 6.12677 25.92 5.59946 24.8851C5.38032 24.455 5.20177 23.8385 5.10327 22.6328C5.00214 21.3951 5 19.7938 5 17.4382V16.3382C5 13.9826 5.00214 12.3813 5.10327 11.1435C5.20177 9.9379 5.38032 9.32133 5.59946 8.89124C6.12677 7.85634 6.96816 7.01495 8.00305 6.48765C8.43315 6.2685 9.04971 6.08995 10.2554 5.99145C11.4931 5.89032 13.0944 5.88818 15.45 5.88818Z" fill="#1F1F1E"/>
</svg>
