<svg width="32" height="32" viewBox="0 0 32 32" fill="none" xmlns="http://www.w3.org/2000/svg">
<path d="M25.625 8.4375C25.625 9.57659 24.7016 10.5 23.5625 10.5C22.4234 10.5 21.5 9.57659 21.5 8.4375C21.5 7.29841 22.4234 6.375 23.5625 6.375C24.7016 6.375 25.625 7.29841 25.625 8.4375Z" fill="#BBBBBA"/>
<path fill-rule="evenodd" clip-rule="evenodd" d="M16 22.875C19.797 22.875 22.875 19.797 22.875 16C22.875 12.203 19.797 9.125 16 9.125C12.203 9.125 9.125 12.203 9.125 16C9.125 19.797 12.203 22.875 16 22.875ZM16 20.125C18.2782 20.125 20.125 18.2782 20.125 16C20.125 13.7218 18.2782 11.875 16 11.875C13.7218 11.875 11.875 13.7218 11.875 16C11.875 18.2782 13.7218 20.125 16 20.125Z" fill="#BBBBBA"/>
<path fill-rule="evenodd" clip-rule="evenodd" d="M2.25 15.45C2.25 10.8296 2.25 8.51935 3.1492 6.75458C3.94015 5.20224 5.20224 3.94015 6.75458 3.1492C8.51935 2.25 10.8296 2.25 15.45 2.25H16.55C21.1704 2.25 23.4806 2.25 25.2454 3.1492C26.7978 3.94015 28.0598 5.20224 28.8508 6.75458C29.75 8.51935 29.75 10.8296 29.75 15.45V16.55C29.75 21.1704 29.75 23.4806 28.8508 25.2454C28.0598 26.7978 26.7978 28.0598 25.2454 28.8508C23.4806 29.75 21.1704 29.75 16.55 29.75H15.45C10.8296 29.75 8.51935 29.75 6.75458 28.8508C5.20224 28.0598 3.94015 26.7978 3.1492 25.2454C2.25 23.4806 2.25 21.1704 2.25 16.55V15.45ZM15.45 5H16.55C18.9056 5 20.5069 5.00214 21.7446 5.10327C22.9503 5.20177 23.5668 5.38032 23.9969 5.59946C25.0318 6.12677 25.8732 6.96816 26.4005 8.00305C26.6197 8.43315 26.7982 9.04971 26.8967 10.2554C26.9979 11.4931 27 13.0944 27 15.45V16.55C27 18.9056 26.9979 20.5069 26.8967 21.7446C26.7982 22.9503 26.6197 23.5668 26.4005 23.9969C25.8732 25.0318 25.0318 25.8732 23.9969 26.4005C23.5668 26.6197 22.9503 26.7982 21.7446 26.8967C20.5069 26.9979 18.9056 27 16.55 27H15.45C13.0944 27 11.4931 26.9979 10.2554 26.8967C9.04971 26.7982 8.43315 26.6197 8.00305 26.4005C6.96816 25.8732 6.12677 25.0318 5.59946 23.9969C5.38032 23.5668 5.20177 22.9503 5.10327 21.7446C5.00214 20.5069 5 18.9056 5 16.55V15.45C5 13.0944 5.00214 11.4931 5.10327 10.2554C5.20177 9.04971 5.38032 8.43315 5.59946 8.00305C6.12677 6.96816 6.96816 6.12677 8.00305 5.59946C8.43315 5.38032 9.04971 5.20177 10.2554 5.10327C11.4931 5.00214 13.0944 5 15.45 5Z" fill="#BBBBBA"/>
</svg>
